<?xml version="1.0" encoding="UTF-8"?>
<svg xmlns="http://www.w3.org/2000/svg" xmlns:xlink="http://www.w3.org/1999/xlink" width="75px" height="61px" viewBox="0 0 75 61" version="1.1">
<g id="surface1">
<path style=" stroke:none;fill-rule:nonzero;fill:rgb(20%,28.627451%,62.352941%);fill-opacity:1;" d="M 74.980469 30.5 L 31.148438 0 L 31.148438 61 Z M 74.980469 30.5 "/>
<path style=" stroke:none;fill-rule:nonzero;fill:rgb(20%,28.627451%,62.352941%);fill-opacity:1;" d="M 60.800781 30.5 C 60.800781 47.34375 47.195312 61 30.410156 61 C 13.628906 61 0.0195312 47.34375 0.0195312 30.5 C 0.0195312 13.65625 13.628906 0 30.410156 0 C 47.195312 0 60.800781 13.65625 60.800781 30.5 Z M 60.800781 30.5 "/>
<path style=" stroke:none;fill-rule:nonzero;fill:rgb(100%,100%,100%);fill-opacity:1;" d="M 43.535156 26.367188 C 43.535156 29.09375 41.203125 29.800781 41.203125 29.800781 L 44.042969 33.550781 L 40.652344 33.550781 L 38.394531 30.378906 L 38.378906 30.378906 L 38.378906 33.550781 L 35.585938 33.550781 L 35.585938 22.300781 L 39.914062 22.300781 C 43.675781 22.300781 43.535156 26.367188 43.535156 26.367188 M 40.863281 26.386719 C 40.863281 25.0625 39.507812 24.949219 39.507812 24.949219 L 38.378906 24.949219 L 38.378906 27.988281 L 39.507812 27.988281 C 39.507812 27.988281 40.863281 27.691406 40.863281 26.386719 "/>
<path style=" stroke:none;fill-rule:nonzero;fill:rgb(100%,100%,100%);fill-opacity:1;" d="M 19.304688 28.605469 L 19.304688 22.335938 L 16.867188 22.335938 L 13.285156 27.988281 L 9.609375 33.664062 L 12.699219 33.664062 L 13.230469 32.804688 L 16.816406 27.167969 L 16.796875 27.207031 L 16.796875 33.664062 L 19.179688 33.664062 L 21.460938 29.988281 L 23.277344 27.148438 L 23.277344 33.605469 L 25.980469 33.605469 L 25.980469 22.335938 L 23.277344 22.335938 L 19.304688 28.625 Z M 19.304688 28.605469 "/>
<path style=" stroke:none;fill-rule:nonzero;fill:rgb(100%,100%,100%);fill-opacity:1;" d="M 54.003906 26.609375 C 53.441406 24.070312 51.265625 22.1875 48.691406 22.1875 C 45.652344 22.1875 43.195312 24.78125 43.195312 27.972656 C 43.195312 31.160156 45.652344 33.753906 48.691406 33.753906 C 51.25 33.753906 53.40625 31.890625 54.003906 29.371094 L 51.023438 29.371094 C 50.5625 30.226562 49.679688 30.804688 48.691406 30.804688 C 47.1875 30.804688 45.988281 29.539062 45.988281 27.96875 C 45.988281 26.402344 47.1875 25.132812 48.691406 25.132812 C 49.695312 25.132812 50.597656 25.734375 51.054688 26.609375 L 54.003906 26.609375 "/>
<path style=" stroke:none;fill-rule:nonzero;fill:rgb(100%,100%,100%);fill-opacity:1;" d="M 32.164062 22.335938 L 34.773438 22.335938 L 34.773438 33.550781 L 32.195312 33.550781 L 32.195312 32.171875 L 29.140625 32.171875 L 28.222656 33.605469 L 25.027344 33.605469 L 28.632812 27.898438 Z M 30.695312 29.652344 L 32.195312 29.652344 L 32.195312 27.28125 Z M 30.695312 29.652344 "/>
<path style=" stroke:none;fill-rule:nonzero;fill:rgb(100%,100%,100%);fill-opacity:1;" d="M 51.992188 38.8125 L 54.410156 35.136719 L 8.832031 35.136719 L 6.410156 38.8125 Z M 51.992188 38.8125 "/>
</g>
</svg>
