<?xml version="1.0" encoding="UTF-8"?>
<svg xmlns="http://www.w3.org/2000/svg" xmlns:xlink="http://www.w3.org/1999/xlink" width="20px" height="73px" viewBox="0 0 20 73" version="1.1">
<g id="surface1">
<path style="fill-rule:nonzero;fill:rgb(52.156863%,21.176471%,24.313725%);fill-opacity:1;stroke-width:7;stroke-linecap:butt;stroke-linejoin:miter;stroke:rgb(0%,0%,0%);stroke-opacity:1;stroke-miterlimit:10;" d="M 3.518377 548.979079 L 248.281623 548.979079 L 248.281623 921.714536 L 3.518377 921.714536 Z M 3.518377 548.979079 " transform="matrix(0.0793496,0,0,0.0789036,0.00988053,0)"/>
<path style=" stroke:none;fill-rule:nonzero;fill:rgb(66.666667%,61.960784%,63.137255%);fill-opacity:1;" d="M 13.199219 60.46875 L 19.433594 60.46875 L 19.433594 61.113281 L 13.199219 61.113281 Z M 13.199219 60.46875 "/>
<path style=" stroke:none;fill-rule:nonzero;fill:rgb(66.666667%,61.960784%,63.137255%);fill-opacity:1;" d="M 0.542969 70.726562 L 19.40625 70.726562 L 19.40625 72.414062 L 0.542969 72.414062 Z M 0.542969 70.726562 "/>
<path style="fill:none;stroke-width:7;stroke-linecap:butt;stroke-linejoin:miter;stroke:rgb(0%,0%,0%);stroke-opacity:1;stroke-miterlimit:10;" d="M 86.763479 762.798236 L 88.289558 852.009193 " transform="matrix(0.0793496,0,0,0.0789036,0.00988053,0)"/>
<path style="fill:none;stroke-width:7;stroke-linecap:butt;stroke-linejoin:miter;stroke:rgb(0%,0%,0%);stroke-opacity:1;stroke-miterlimit:10;" d="M 166.759512 851.266594 L 85.040488 852.0587 " transform="matrix(0.0793496,0,0,0.0789036,0.00988053,0)"/>
<path style="fill:none;stroke-width:7;stroke-linecap:butt;stroke-linejoin:miter;stroke:rgb(0%,0%,0%);stroke-opacity:1;stroke-miterlimit:10;" d="M 163.165844 760.718958 L 164.298096 854.088472 " transform="matrix(0.0793496,0,0,0.0789036,0.00988053,0)"/>
<path style="fill:none;stroke-width:7;stroke-linecap:butt;stroke-linejoin:miter;stroke:rgb(0%,0%,0%);stroke-opacity:1;stroke-miterlimit:10;" d="M 126.293827 746.609567 L 126.293827 849.781394 " transform="matrix(0.0793496,0,0,0.0789036,0.00988053,0)"/>
<path style="fill:none;stroke-width:7;stroke-linecap:butt;stroke-linejoin:miter;stroke:rgb(0%,0%,0%);stroke-opacity:1;stroke-miterlimit:10;" d="M 86.763479 762.798236 C 86.763479 752.847403 104.830276 744.777821 127.179937 744.777821 " transform="matrix(0.0793496,0,0,0.0789036,0.00988053,0)"/>
<path style="fill:none;stroke-width:7;stroke-linecap:butt;stroke-linejoin:miter;stroke:rgb(0%,0%,0%);stroke-opacity:1;stroke-miterlimit:10;" d="M 163.264301 762.798236 C 163.264301 752.847403 145.197504 744.777821 122.847844 744.777821 " transform="matrix(0.0793496,0,0,0.0789036,0.00988053,0)"/>
<path style="fill-rule:nonzero;fill:rgb(21.568627%,21.176471%,24.705882%);fill-opacity:1;stroke-width:7;stroke-linecap:butt;stroke-linejoin:miter;stroke:rgb(0%,0%,0%);stroke-opacity:1;stroke-miterlimit:10;" d="M 89.618722 226.44335 L 162.722789 226.44335 L 162.722789 460.015655 L 89.618722 460.015655 Z M 89.618722 226.44335 " transform="matrix(0.0793496,0,0,0.0789036,0.00988053,0)"/>
<path style="fill:none;stroke-width:7;stroke-linecap:butt;stroke-linejoin:miter;stroke:rgb(60.784314%,52.156863%,47.45098%);stroke-opacity:1;stroke-miterlimit:10;" d="M 132.890423 302.386528 C 132.890423 306.396566 129.641353 309.614497 125.653858 309.614497 C 121.617135 309.614497 118.368066 306.396566 118.368066 302.386528 C 118.368066 298.376491 121.617135 295.109053 125.653858 295.109053 C 129.641353 295.109053 132.890423 298.376491 132.890423 302.386528 Z M 132.890423 302.386528 " transform="matrix(0.0793496,0,0,0.0789036,0.00988053,0)"/>
<path style="fill:none;stroke-width:7;stroke-linecap:butt;stroke-linejoin:miter;stroke:rgb(60.784314%,52.156863%,47.45098%);stroke-opacity:1;stroke-miterlimit:10;" d="M 119.352632 318.030625 C 119.352632 321.941649 116.152791 325.15958 112.165297 325.15958 C 108.22703 325.15958 105.027189 321.941649 105.027189 318.030625 C 105.027189 314.070094 108.22703 310.852163 112.165297 310.852163 C 116.152791 310.852163 119.352632 314.070094 119.352632 318.030625 Z M 119.352632 318.030625 " transform="matrix(0.0793496,0,0,0.0789036,0.00988053,0)"/>
<path style="fill:none;stroke-width:7;stroke-linecap:butt;stroke-linejoin:miter;stroke:rgb(60.784314%,52.156863%,47.45098%);stroke-opacity:1;stroke-miterlimit:10;" d="M 147.314323 314.614667 C 147.314323 318.575198 144.065253 321.842636 140.02853 321.842636 C 136.041036 321.842636 132.791966 318.575198 132.791966 314.614667 C 132.791966 310.60463 136.041036 307.337192 140.02853 307.337192 C 144.065253 307.337192 147.314323 310.60463 147.314323 314.614667 Z M 147.314323 314.614667 " transform="matrix(0.0793496,0,0,0.0789036,0.00988053,0)"/>
<path style="fill:none;stroke-width:7;stroke-linecap:butt;stroke-linejoin:miter;stroke:rgb(60.784314%,52.156863%,47.45098%);stroke-opacity:1;stroke-miterlimit:10;" d="M 133.727304 330.852844 C 133.727304 334.813374 130.527463 338.031306 126.589197 338.031306 C 122.65093 338.031306 119.451089 334.813374 119.451089 330.852844 C 119.451089 326.941819 122.65093 323.723888 126.589197 323.723888 C 130.527463 323.723888 133.727304 326.941819 133.727304 330.852844 Z M 133.727304 330.852844 " transform="matrix(0.0793496,0,0,0.0789036,0.00988053,0)"/>
<path style="fill-rule:nonzero;fill:rgb(21.568627%,21.176471%,24.705882%);fill-opacity:1;stroke-width:7;stroke-linecap:butt;stroke-linejoin:miter;stroke:rgb(0%,0%,0%);stroke-opacity:1;stroke-miterlimit:10;" d="M 47.774644 250.404561 L 84.055921 229.463254 L 84.055921 271.296361 Z M 47.774644 250.404561 " transform="matrix(0.0793496,0,0,0.0789036,0.00988053,0)"/>
<path style="fill-rule:nonzero;fill:rgb(21.568627%,21.176471%,24.705882%);fill-opacity:1;stroke-width:7;stroke-linecap:butt;stroke-linejoin:miter;stroke:rgb(0%,0%,0%);stroke-opacity:1;stroke-miterlimit:10;" d="M 204.025356 250.404561 L 167.744079 229.463254 L 167.744079 271.296361 Z M 204.025356 250.404561 " transform="matrix(0.0793496,0,0,0.0789036,0.00988053,0)"/>
<path style="fill-rule:nonzero;fill:rgb(21.568627%,21.176471%,24.705882%);fill-opacity:1;stroke-width:7;stroke-linecap:butt;stroke-linejoin:miter;stroke:rgb(0%,0%,0%);stroke-opacity:1;stroke-miterlimit:10;" d="M 126.589197 19.901667 L 162.722789 221.839233 L 90.455604 221.839233 Z M 126.589197 19.901667 " transform="matrix(0.0793496,0,0,0.0789036,0.00988053,0)"/>
<path style="fill:none;stroke-width:7;stroke-linecap:butt;stroke-linejoin:miter;stroke:rgb(0%,0%,0%);stroke-opacity:1;stroke-miterlimit:10;" d="M 82.972898 584.376323 L 118.909577 584.376323 L 118.909577 671.706027 L 82.972898 671.706027 Z M 82.972898 584.376323 " transform="matrix(0.0793496,0,0,0.0789036,0.00988053,0)"/>
<path style="fill:none;stroke-width:7;stroke-linecap:butt;stroke-linejoin:miter;stroke:rgb(0%,0%,0%);stroke-opacity:1;stroke-miterlimit:10;" d="M 100.941238 585.514975 L 100.941238 671.706027 " transform="matrix(0.0793496,0,0,0.0789036,0.00988053,0)"/>
<path style="fill:none;stroke-width:7;stroke-linecap:butt;stroke-linejoin:miter;stroke:rgb(0%,0%,0%);stroke-opacity:1;stroke-miterlimit:10;" d="M 118.958806 628.585748 L 82.972898 628.585748 " transform="matrix(0.0793496,0,0,0.0789036,0.00988053,0)"/>
<path style="fill:none;stroke-width:7;stroke-linecap:butt;stroke-linejoin:miter;stroke:rgb(0%,0%,0%);stroke-opacity:1;stroke-miterlimit:10;" d="M 132.841194 584.376323 L 168.827102 584.376323 L 168.827102 671.706027 L 132.841194 671.706027 Z M 132.841194 584.376323 " transform="matrix(0.0793496,0,0,0.0789036,0.00988053,0)"/>
<path style="fill:none;stroke-width:7;stroke-linecap:butt;stroke-linejoin:miter;stroke:rgb(0%,0%,0%);stroke-opacity:1;stroke-miterlimit:10;" d="M 150.858762 584.871389 L 150.858762 671.062441 " transform="matrix(0.0793496,0,0,0.0789036,0.00988053,0)"/>
<path style="fill:none;stroke-width:7;stroke-linecap:butt;stroke-linejoin:miter;stroke:rgb(0%,0%,0%);stroke-opacity:1;stroke-miterlimit:10;" d="M 168.827102 627.991668 L 132.841194 627.991668 " transform="matrix(0.0793496,0,0,0.0789036,0.00988053,0)"/>
<path style="fill-rule:nonzero;fill:rgb(33.72549%,33.333333%,39.607843%);fill-opacity:1;stroke-width:7;stroke-linecap:butt;stroke-linejoin:miter;stroke:rgb(0%,0%,0%);stroke-opacity:1;stroke-miterlimit:10;" d="M 125.9 362.042024 L 244.441813 548.979079 L 7.358187 548.979079 Z M 125.9 362.042024 " transform="matrix(0.0793496,0,0,0.0789036,0.00988053,0)"/>
<path style="fill:none;stroke-width:11;stroke-linecap:butt;stroke-linejoin:miter;stroke:rgb(76.078431%,70.980392%,60.784314%);stroke-opacity:1;stroke-miterlimit:10;" d="M 125.9 477.392484 L 109.260825 511.156009 L 142.539175 511.156009 Z M 125.9 477.392484 " transform="matrix(0.0793496,0,0,0.0789036,0.00988053,0)"/>
<path style="fill:none;stroke-width:4;stroke-linecap:butt;stroke-linejoin:miter;stroke:rgb(0%,0%,0%);stroke-opacity:1;stroke-miterlimit:10;" d="M 106.947094 849.781394 L 106.947094 747.203646 " transform="matrix(0.0793496,0,0,0.0789036,0.00988053,0)"/>
<path style="fill:none;stroke-width:4;stroke-linecap:butt;stroke-linejoin:miter;stroke:rgb(0%,0%,0%);stroke-opacity:1;stroke-miterlimit:10;" d="M 143.031458 750.768124 L 143.031458 849.781394 " transform="matrix(0.0793496,0,0,0.0789036,0.00988053,0)"/>
<path style="fill:none;stroke-width:6;stroke-linecap:butt;stroke-linejoin:miter;stroke:rgb(0%,0%,0%);stroke-opacity:1;stroke-miterlimit:10;" d="M 86.763479 803.49269 L 163.756584 803.49269 " transform="matrix(0.0793496,0,0,0.0789036,0.00988053,0)"/>
<path style="fill:none;stroke-width:7;stroke-linecap:butt;stroke-linejoin:miter;stroke:rgb(0%,0%,0%);stroke-opacity:1;stroke-miterlimit:10;" d="M 143.031458 750.768124 L 143.031458 746.609567 " transform="matrix(0.0793496,0,0,0.0789036,0.00988053,0)"/>
<path style=" stroke:none;fill-rule:nonzero;fill:rgb(66.666667%,61.960784%,63.137255%);fill-opacity:1;" d="M 0.566406 67.199219 L 19.433594 67.199219 L 19.433594 67.84375 L 0.566406 67.84375 Z M 0.566406 67.199219 "/>
<path style=" stroke:none;fill-rule:nonzero;fill:rgb(66.666667%,61.960784%,63.137255%);fill-opacity:1;" d="M 0.597656 60.46875 L 6.625 60.46875 L 6.625 61.113281 L 0.597656 61.113281 Z M 0.597656 60.46875 "/>
<path style=" stroke:none;fill-rule:nonzero;fill:rgb(66.666667%,61.960784%,63.137255%);fill-opacity:1;" d="M 0.558594 53.191406 L 19.433594 53.191406 L 19.433594 53.832031 L 0.558594 53.832031 Z M 0.558594 53.191406 "/>
<path style=" stroke:none;fill-rule:nonzero;fill:rgb(66.666667%,61.960784%,63.137255%);fill-opacity:1;" d="M 19.4375 44.785156 L 0.5625 44.785156 L 0.5625 43.539062 L 19.4375 43.539062 Z M 19.4375 44.785156 "/>
<path style=" stroke:none;fill-rule:nonzero;fill:rgb(81.960784%,82.745098%,83.137255%);fill-opacity:1;" d="M 1.679688 55.285156 L 18.109375 55.285156 L 18.109375 57.691406 L 1.679688 57.691406 Z M 1.679688 55.285156 "/>
</g>
</svg>
